<svg xmlns="http://www.w3.org/2000/svg" viewBox="0 0 128 128" role="img" aria-labelledby="title">
  <title>Private Culinary Journal icon placeholder</title>
  <rect width="128" height="128" rx="32" fill="#F1E8DA" />
  <rect x="10" y="10" width="108" height="108" rx="26" fill="#F7F3EC" stroke="#D8CCBA" />
  <path d="M36 44c0-7.732 6.268-14 14-14h28c7.732 0 14 6.268 14 14v40c0 7.732-6.268 14-14 14H50c-7.732 0-14-6.268-14-14V44Z" fill="#FBF8F2" stroke="#B86F4B" stroke-width="3"/>
  <path d="M52 26c0-4.418 3.582-8 8-8h8c4.418 0 8 3.582 8 8v8H52v-8Z" fill="#9EAA92"/>
  <path d="M47 60h34" stroke="#7B7A4B" stroke-width="4" stroke-linecap="round"/>
  <path d="M47 74h22" stroke="#7B7A4B" stroke-width="4" stroke-linecap="round" opacity="0.72"/>
</svg>